<?xml version="1.0" encoding="utf-8"?>
<!-- Generator: Adobe Illustrator 16.0.0, SVG Export Plug-In . SVG Version: 6.00 Build 0)  -->
<!DOCTYPE svg PUBLIC "-//W3C//DTD SVG 1.1//EN" "http://www.w3.org/Graphics/SVG/1.1/DTD/svg11.dtd">
<svg version="1.1" id="图形" xmlns="http://www.w3.org/2000/svg" xmlns:xlink="http://www.w3.org/1999/xlink" x="0px" y="0px"
	 width="4832.199px" height="1000.678px" viewBox="0 0 4832.199 1000.678" enable-background="new 0 0 4832.199 1000.678"
	 xml:space="preserve">
<g>
	<g transform="scale(0.1953125, 0.1953125)">
		<path fill="#1AAD19" d="M1866.339,3160.052c-23.2,11.705-49.19,18.375-76.875,18.375c-64.025,0-119.71-35.195-148.985-87.435
			l-11.19-24.415l-466.469-1023.59c-5.08-11.215-8.125-23.687-8.125-35.965c0-47.157,38.24-85.417,85.4-85.417
			c19.14,0,36.825,6.335,51.13,16.977l550.384,391.886c40.185,26.315,88.295,41.73,139.935,41.73c30.8,0,60.165-5.7,87.585-15.765
			l2588.553-1152.082c-464.054-546.789-1228.207-904.213-2092.875-904.213c-1415.082,0-2562.199,955.918-2562.199,2135.135
			c0,643.363,345.169,1222.422,885.293,1613.826c43.36,30.915,71.755,81.87,71.755,139.095c0,19.03-4.085,36.47-9.03,54.535
			c-43.14,160.9-112.225,418.734-115.45,430.834c-5.32,20-13.75,41.195-13.75,62.22c0,47.375,38.24,85.615,85.44,85.615
			c18.545,0,33.605-6.93,49.255-15.855l560.834-324.02c42.215-24.37,86.905-39.475,136.07-39.475c26.14,0,51.44,4.02,75.285,11.305
			c261.694,75.335,544.004,117.145,836.368,117.145c1414.966,0,2562.134-955.983,2562.134-2135.225
			c0-357.114-105.87-693.518-291.829-989.388L1884.869,3149.202L1866.339,3160.052z"/>
	</g>
</g>
<g>
	<g transform="scale(0.1953125, 0.1953125)">
		<path fill="#231815" d="M9043.366,2700.678c-18.875,67.645-37.405,133.365-55.515,197.429
			c-70.516,249.524-132.29,468.094-180.225,687.633c-47.117-263.409-128.013-572.899-213.862-893.043l-411.644-1553.526h-213.419
			l-452.624,1565.236c-103.527,337.649-193.687,639.438-242.077,883.748c-45.93-212.655-111.272-470.579-180.117-742.238
			l-439.136-1706.746h-234.839l735.783,2788.713h209.219l473.154-1598.013c113.01-373.259,186.082-630.633,231.827-861.078
			c39.962,246.827,105.475,508.029,201.53,860.428l415.719,1598.663h213.316l835.038-2788.713H9500.33L9043.366,2700.678z
			 M11201.9,3668.111c-114.039,52.82-258.629,99.525-516.398,99.525c-459.509,0-725.068-306.339-730.519-841.268h1442.347
			l2.905-13.105c8.569-38.655,8.569-68.34,8.569-122.23c0-74.13-10.38-333.252-143.759-557.869
			c-136.37-229.539-350.635-345.922-636.769-345.922c-537.574,0-898.806,433.851-898.806,1079.54
			c0,599.323,374.337,1001.962,931.545,1001.962c354.93,0,555.188-90.125,624.824-128.855l11.479-6.405L11201.9,3668.111z
			 M10603.822,2084.25c162.175,0,293.204,49.617,389.419,147.342c156.664,159.122,177.529,395.767,177.949,505.896H9965.414
			C10008.329,2431.854,10199.333,2084.25,10603.822,2084.25z M13106.921,3767.636c-718.309,0-1147.177-453.704-1147.177-1213.602
			c0-788.173,441.049-1258.737,1179.892-1258.737c204.984,0,397.449,38.662,545.813,108.43l103.93-180.13l-8.609-4.75
			c-53.216-29.262-256.92-124.685-645.264-124.685c-845.388,0-1413.437,584.999-1413.437,1455.719
			c0,1047.255,710.888,1418.864,1319.562,1418.864c346.179,0,614.733-72.69,750.718-140.815l10.405-5.12l-99.585-172.635
			C13543.699,3723.701,13322.936,3767.636,13106.921,3767.636z M15051.116,1887.243c-145.95,0-286.06,40.457-404.465,116.637
			c-97.499,55.815-186.139,144.362-248.519,247.094V1094.162h-229.595v2833.723h229.595V2713.353
			c0-79.445,3.62-130.83,23.475-190.574c90.104-253.372,327.169-430.346,576.469-430.346c454.403,0,522.248,412.039,522.248,657.666
			v1177.787h229.625V2729.743C15749.949,1927.828,15167.775,1887.243,15051.116,1887.243z M18701.051,3756.111
			c-40.184,8.53-96.305,15.61-173.395,15.61c-183.658,0-269.129-123.34-269.129-387.939V2125.16h559.51v-193.052h-559.51v-440.676
			h-229.545v440.676h-330.803v193.052h330.803v1221.812c0,226.81,41.41,384.234,126.111,480.464
			c74.398,95.175,194.729,145.44,348.078,145.44c109.404,0,203.785-16.925,280.299-50.515l10.76-4.725L18701.051,3756.111z
			 M20361.832,1118.747c-197.959,0-398.164,17.925-595.193,53.392l-13.789,2.502V3927.91h229.52V2755.768
			c89.684,22.715,189.484,27.505,318.148,27.505c353.049,0,644.684-110.93,820.988-312.109
			c132.16-144.942,196.309-329.197,196.309-563.116c0-227.114-75.25-417.894-217.363-551.609
			C20940.775,1200.965,20685.381,1118.747,20361.832,1118.747z M21088.381,1928.558c0,418.021-281.164,657.641-771.508,657.641
			c-103.631,0-234.145-4.175-334.504-36.162v-1204.75c47.814-9.475,171.93-29.563,371.213-29.563
			C20820.496,1315.724,21088.381,1539.141,21088.381,1928.558z M24489.086,1932.108l-481.813,1282.149
			c-44.545,115.835-82.305,228.659-115.666,328.339c-8.023,23.905-15.773,46.99-23.254,69.045
			c-39.266-127.71-87.744-268.949-132.141-385.339l-514.678-1283.674l-4.115-10.52h-244.41l736.254,1842.158
			c19.199,48.12,23.25,69.895,23.25,79.57c0,17.955-8.176,41.865-23.18,79.38c-99.65,236.79-230.664,396.759-322.924,489.083
			c-127.455,122.965-266,186.265-337.34,213.015l-13.584,5.06l105.559,182.944c52.211-19.78,182.926-77.22,329.295-200.604
			c254.773-222.564,417.799-565.688,666.094-1204.052l597.297-1486.554H24489.086L24489.086,1932.108z M17534.734,3908.45
			c-24.949-153.99-28.379-313.734-28.379-463.384v-768.438c0-516.429-240.246-789.385-694.684-789.385
			c-204.686,0-423.32,63.667-584.989,170.3l-0.85,0.58l93.449,162.165c128.515-87.577,295.245-136.037,472.134-136.037
			c2.33,0,4.68-0.075,7.035-0.075c145.084,0,258.82,39.882,338,118.455c94.443,93.78,140.459,238.072,140.459,441.229v36.265
			c-480.658-3.93-821.633,94.475-1017.513,288.654c-118.914,117.785-179.185,268.439-179.185,447.734
			c0,267.899,185.505,556.364,592.623,556.364c296.385,0,512.455-153.9,623.979-307.094l26.531,262.104h214.52L17534.734,3908.45z
			 M17276.91,3281.617c0,29.27-3.426,72.48-19.625,113.135c-62.596,184.159-243.674,381.069-564.018,381.069
			c-173.201,0-375.335-102.655-375.335-392.064c0-123.44,40.835-225.719,121.339-304.039
			c139.121-135.34,395.584-203.76,763.02-203.76c24.404,0,49.215,0.295,74.619,0.845V3281.617z M22801.541,3908.45
			c-24.879-153.99-28.379-313.734-28.379-463.384v-768.438c0-516.429-240.176-789.385-694.725-789.385
			c-195.309,0-402.793,58.465-561.893,156.49l93.109,161.4c124.949-77.825,282.119-120.882,448.568-120.882
			c2.43,0,4.701-0.075,7.055-0.075c145.096,0,258.756,39.882,337.975,118.455c94.449,93.68,140.42,238.072,140.42,441.229v36.235
			c-478.693-3.9-821.568,94.505-1017.527,288.684c-118.859,117.77-179.18,268.405-179.18,447.734
			c0,267.899,185.514,556.364,592.623,556.364c296.391,0,512.455-153.77,624.064-307.119l26.529,262.129h214.51L22801.541,3908.45z
			 M22543.672,3281.617c0,29.19-3.35,72.48-19.506,113.135c-62.725,184.159-243.828,381.069-564.098,381.069
			c-173.199,0-375.408-102.655-375.408-392.064c0-123.44,40.84-225.719,121.344-304.039
			c139.109-135.34,395.613-203.76,763.049-203.76c24.41,0,49.289,0.295,74.59,0.845"/>
	</g>
</g>
</svg>
