<?xml version="1.0" encoding="utf-8"?>
<!-- Generator: Adobe Illustrator 16.0.0, SVG Export Plug-In . SVG Version: 6.00 Build 0)  -->
<!DOCTYPE svg PUBLIC "-//W3C//DTD SVG 1.1//EN" "http://www.w3.org/Graphics/SVG/1.1/DTD/svg11.dtd">
<svg version="1.1" id="图形" xmlns="http://www.w3.org/2000/svg" xmlns:xlink="http://www.w3.org/1999/xlink" x="0px" y="0px"
	 width="1395.288px" height="1748.944px" viewBox="-197.885 41.759 1395.288 1748.944"
	 enable-background="new -197.885 41.759 1395.288 1748.944" xml:space="preserve">
<path fill="#1AAD19" d="M364.207,599.14c-4.511,2.276-9.593,3.587-14.986,3.587c-12.476,0-23.333-6.868-29.036-17.03l-2.184-4.775
	l-90.903-199.485c-0.987-2.169-1.601-4.632-1.601-7.013c0-9.183,7.455-16.646,16.652-16.646c3.745,0,7.184,1.218,9.962,3.309
	l107.271,76.375c7.848,5.133,17.209,8.138,27.271,8.138c6.008,0,11.737-1.125,17.077-3.057l504.498-224.559
	c-90.411-106.57-239.35-176.223-407.885-176.223C224.537,41.759,0.97,228.063,0.97,457.902
	c0,125.388,67.271,238.255,172.538,314.537c8.455,6.034,13.985,15.932,13.985,27.112c0,3.691-0.787,7.079-1.747,10.612
	c-8.415,31.373-21.872,81.601-22.507,83.956c-1.046,3.917-2.687,8.031-2.687,12.161c0,9.195,7.457,16.632,16.652,16.632
	c3.62,0,6.563-1.337,9.607-3.083l109.334-63.131c8.225-4.735,16.923-7.674,26.517-7.674c5.093,0,10.023,0.781,14.674,2.197
	c50.996,14.661,106.021,22.825,163.004,22.825c275.78,0,499.347-186.319,499.347-416.146c0-69.612-20.602-135.189-56.874-192.828
	L367.853,597.037L364.207,599.14z"/>
<path fill="#231815" d="M165.073,1599.064h15.952l-0.749,2.434l-42.911,143.225h-13.723l-0.371-1.416l-21.178-81.337
	c-3.618-13.285-6.516-24.506-8.599-34.722c-2.336,9.66-5.558,20.735-9.826,34.827l-24.498,82.647H45.648l-0.364-1.431
	L7.196,1599.064h15.866l0.371,1.401l22.732,88.338c2.533,10.004,4.961,19.53,6.954,28.078c2.625-10.81,6.337-23.17,10.539-36.864
	l23.44-80.953h13.741l0.365,1.401l20.959,79.037c3.163,11.75,6.681,25.047,9.216,36.955c1.991-8.084,4.307-16.248,6.927-25.483
	l3.117-11.114L165.073,1599.064z M230.975,1637.133c15.282,0,26.734,6.22,34.039,18.513c7.044,11.828,7.588,25.457,7.588,29.348
	c0,2.857,0,4.446-0.477,6.616l-0.476,2.143h-73.027c0.854,24.824,13.669,39.034,35.27,39.034c13.166,0,20.277-2.474,25.499-4.896
	l1.567-0.713l6.683,11.577l-2.262,1.244c-3.661,2.052-14.2,6.802-32.738,6.802c-29.493,0-49.322-21.238-49.322-52.863
	C183.319,1659.958,202.466,1637.133,230.975,1637.133 M256.677,1680.387c-0.258-5.887-1.772-15.744-8.469-22.52
	c-4.525-4.604-10.744-6.959-18.477-6.959c-12.195,0-26.438,7.78-30.295,29.479H256.677z M390.241,1726.979h-0.014
	c-7.873,3.638-18.929,5.808-29.565,5.808c-35.391,0-56.514-22.375-56.514-59.862c0-38.899,21.746-62.136,58.194-62.136
	c10.07,0,19.663,1.893,26.974,5.346l1.573,0.742l7.127-12.333l-2.125-1.19c-2.818-1.536-13.549-6.59-33.769-6.59
	c-44.168,0-73.854,30.54-73.854,75.951c0,54.674,37.201,74.072,69.069,74.072c17.958,0,31.95-3.812,39.081-7.357l2.316-1.164
	l-6.939-12.002L390.241,1726.979z M462.208,1637.119c-7.807,0-15.269,2.156-21.541,6.18c-3.605,2.079-6.966,4.936-9.837,8.35
	v-54.873h-15.461v147.933h15.461v-63.671c0-3.8,0.172-6.271,1.098-9.064c4.333-12.146,15.674-20.642,27.569-20.642
	c21.501,0,24.718,19.795,24.718,31.598v61.779h15.454v-62.838C499.668,1639.275,468.468,1637.119,462.208,1637.119 M637.677,1616.98
	h-15.482v23.395h-16.832v12.623h16.832v60.271c0,12.029,2.249,20.404,6.829,25.604c4.155,5.319,10.81,8.126,19.227,8.126
	c5.834,0,10.89-0.915,15.018-2.727l2.5-1.085l-6.509-11.248l-1.324,0.291c-2.343,0.503-5.2,0.769-8.442,0.769
	c-8.283,0-11.817-5.347-11.817-17.865v-62.136h28.489v-12.623h-28.489V1616.98z M767.177,1598.032
	c17.005,0,30.473,4.368,38.929,12.624c7.61,7.144,11.646,17.308,11.646,29.415c0,12.397-3.428,22.177-10.48,29.917
	c-9.315,10.638-24.664,16.487-43.19,16.487c-5.542,0-10.16-0.158-14.328-0.927v59.159h-15.455v-143.54l2.261-0.396
	C746.615,1598.96,756.923,1598.032,767.177,1598.032 M749.752,1671.298c4.737,1.229,10.547,1.389,15.15,1.389
	c23.765,0,37.393-11.512,37.393-31.572c0-18.629-12.955-29.281-35.528-29.281c-8.296,0-13.984,0.688-17.015,1.19V1671.298z
	 M988.007,1639.409l-24.982,66.437c-2.013,5.2-3.771,10.401-5.269,14.819c-1.574-4.842-3.331-9.789-5.025-14.236l-26.201-65.285
	l-0.675-1.734h-16.512l38.518,96.304c1.03,2.605,1.059,3.319,1.059,3.359c0,0.649-0.543,2.051-1.048,3.294
	c-4.974,11.804-11.456,19.689-16.035,24.241c-6.245,6.035-13.019,9.129-16.499,10.439l-2.808,1.032l7.318,12.624l1.494-0.556
	c2.621-0.992,9.581-4.022,17.335-10.546c13.285-11.605,21.699-29.229,34.442-61.967l30.407-75.633l1.06-2.593H988.007z
	 M593.232,1718.271c0,7.53,0.172,15.575,1.416,23.276l0.502,3.176h-14.846l-1.058-10.586c-5.149,5.426-14.979,12.862-30.342,12.862
	c-22.031,0-32.06-15.655-32.06-30.196c0-9.646,3.242-17.757,9.673-24.108c10.147-10.058,27.376-15.164,51.26-15.242
	c0-9.779-2.157-16.661-6.603-21.055c-3.679-3.638-9.011-5.489-15.878-5.489h-0.358c-8.574,0-16.712,2.354-22.984,6.616l-1.68,1.136
	l-6.695-11.615l1.575-0.968c8.509-5.596,20.047-8.958,30.816-8.958c24.374,0,37.262,14.543,37.262,42.053V1718.271 M538.32,1701.029
	c-3.719,3.627-5.612,8.362-5.612,14.119c0,13.323,9.29,18.048,17.229,18.048c15.309,0,23.963-9.354,26.941-18.101
	c0.74-1.879,0.898-3.824,0.898-5.147l-0.027-18.735l-1.892-0.016C557.678,1691.197,545.042,1694.493,538.32,1701.029
	 M897.844,1718.257c0,7.518,0.172,15.562,1.414,23.29l0.519,3.161h-14.846l-1.063-10.571c-5.145,5.438-14.989,12.848-30.363,12.848
	c-22.021,0-32.051-15.625-32.051-30.169c0-9.646,3.257-17.77,9.673-24.134c10.15-10.017,27.389-15.166,51.248-15.229
	c-0.012-9.767-2.17-16.674-6.576-21.055c-3.69-3.638-9.025-5.489-15.893-5.489h-0.356c-7.99,0-15.746,2.09-21.847,5.875
	l-1.654,1.032l-6.64-11.473l1.561-0.98c8.388-5.159,19.464-8.243,29.625-8.243c24.373,0,37.249,14.556,37.249,42.053V1718.257
	 M882.364,1691.213h-1.895c-18.18,0-30.817,3.308-37.553,9.816c-3.702,3.612-5.596,8.362-5.596,14.119
	c0,13.323,9.289,18.063,17.241,18.063c15.296,0,23.936-9.369,26.929-18.115c0.739-1.867,0.885-3.824,0.885-5.147L882.364,1691.213z
	 M488.977,1302.033H294.599v19.188h194.377V1302.033z M294.599,1376.477h194.377v-20.536H294.599V1376.477z M484.108,1517.277
	H299.477v-106.094h184.631V1517.277z M463.592,1430.372H320.018v67.721h143.573V1430.372z M243.697,1528.115v-240.412
	c10.89-23.512,20.456-48.575,28.422-74.468l0.231-0.729l-18.968-10.955l-0.338,1.189c-17.048,60.126-41.614,113.796-72.993,159.538
	l-0.351,0.503l11.353,19.49l0.854-1.27c10.393-15.377,21.163-33.068,31.261-51.366v198.479H243.697z M952.333,1202.741
	c-17.043,60.126-41.617,113.796-73.001,159.538l-0.344,0.503l11.338,19.516l0.859-1.295c10.414-15.362,21.187-33.053,31.267-51.354
	v198.466h20.54v-240.412c10.861-23.46,20.415-48.508,28.433-74.468l0.228-0.729l-18.988-10.955L952.333,1202.741z M408.811,1241.009
	l-0.528-1.259c-1.343-3.081-4.652-10.042-8.819-18.801c-3.401-7.119-7.172-15.059-8.958-19.04l-0.662-1.576l-18.901,10.93
	l0.675,1.271c6.087,11.473,11.354,22.044,16.123,32.352c0.351,0.716,0.622,1.338,0.815,1.893H275.725v20.509h233.484v-20.509
	H398.781L408.811,1241.009z M12.562,1232.632H-6.625v60.669h-30.672v-86.271h-19.2v86.271h-32.021v-60.669h-19.187v79.855H12.562
	V1232.632z M4.476,1344.495h-106.781v19.2H4.476V1344.495z M-32.612,1475.862l-0.542,0.809l11.479,19.846l1.362-1.111
	c9.322-7.462,25.181-21.065,47.152-40.396l0.913-0.835l-9.619-16.673l-25.776,22.099v-63.885h-90.632v27.22
	c2.494,35.513-6.312,60.88-26.193,75.394l-1.106,0.781l10.051,17.426l0.893,1.537l1.356-1.125
	c25.392-20.908,37.34-50.309,35.542-87.397v-14.648h50.902v37.501C-27.479,1465.607-28.14,1469.63-32.612,1475.862
	 M-180.897,1308.268c26.788-26.81,49.885-59.359,66.809-94.093l0.411-0.82l-17.791-10.282l-0.449,0.939
	c-16.515,33.715-37.521,63.063-60.741,84.817l-0.557,0.528l11.426,19.809L-180.897,1308.268z M-186.884,1416.875l1.356-1.614
	c9.606-11.208,18.995-22.984,27.967-35.013v147.867h19.187v-179.015c7.786-13.882,15.307-29.349,22.353-46.006l0.531-1.22
	l-18.406-10.585l-0.649,1.588c-15.931,39.814-37.003,74.853-62.64,104.176l-0.701,0.807l9.903,17.188L-186.884,1416.875z
	 M9.253,1337.482c22.085-36.07,38.981-81.071,50.215-133.763l0.146-0.766h0.787l19.12,0.025l-0.138,1.085
	c-2.587,20.167-10.488,44.261-16.435,62.244h76.216v19.186h-18.956c-4.538,67.06-16.678,119.154-36.083,154.841
	c10.599,20.138,29.475,43.664,53.239,66.346l0.852,0.819l-11.465,19.834l-1.381-1.401c-21.84-22.217-40.835-46.259-52.366-66.307
	c-10.229,18.406-28.918,40.384-55.567,65.34l-1.383,1.298l-11.3-19.545l0.906-0.833c25.544-22.747,44.877-45.294,57.519-66.981
	c-12.828-26.807-22.083-63.155-27.515-108.104c-1.602,2.99-3.567,6.512-5.856,10.546l-8.766,17.56l-12.088-20.934L9.253,1337.482z
	 M50.252,1300.313c5.147,47.915,13.278,86.869,24.175,115.887c14.118-32.299,23.057-76.242,26.595-130.705h-44.63
	C53.951,1290.443,51.894,1295.445,50.252,1300.313 M61.593,1267.261 M712.015,1246.91h147.086v20.324H712.015v59.358h78.44
	l0.222,0.133l16.038,9.248l-0.316,0.781c-18.724,47.478-50.361,88.759-91.526,119.458c26.583,17.863,53.84,29.97,72.155,37.023
	c30.232,11.669,50.559,17.068,50.77,17.122l1.179,0.318l-8.522,16.207l-1.323-0.278c-69.878-16.671-110.273-44.695-125.478-55.243
	c-1.509-1.03-2.739-1.892-3.665-2.499c-67.047,43.241-135.164,58.113-135.853,58.245l-0.676,0.159l-0.369-0.622l-11.526-19.993
	l1.324-0.265c48.614-9.448,90.15-25.365,130.625-50.094c-15.271-12.638-28.859-26.359-42.673-43.059
	c-29.109-35.172-43.877-68.132-44.022-68.462l-0.079-0.383l-0.013-17.798h94.529v-59.358H545.49v-20.324h145.763v-46.709h20.761
	V1246.91z M617.896,1344.667c18.101,37.01,47.08,71.904,81.76,98.459c58.036-41.615,79.126-89.99,82.476-98.459H617.896z
	 M1147.637,1283.218v-79.735h-20.603v79.735H973.517v20.497h153.518v171.949c0,17.93-10.68,26.648-32.619,26.648
	c-3.811,0-7.355-0.025-10.781-0.053l-0.966-0.026v20.55h0.95c7.426,0,12.755-0.054,16.264-0.054
	c17.574,0,28.208-3.479,36.705-11.974c7.793-7.794,11.5-19.623,11.05-35.119v-171.922h49.99v-20.497H1147.637z M1032.598,1350.808
	l-0.464-0.928l-18.537,10.824l0.422,0.821c11.315,22.123,24.058,49.235,37.858,80.583l0.45,0.979l20.19-11.776l-0.398-0.808
	C1061.656,1409.2,1047.987,1381.638,1032.598,1350.808"/>
</svg>
