<?xml version="1.0" encoding="utf-8"?>
<!-- Generator: Adobe Illustrator 16.0.0, SVG Export Plug-In . SVG Version: 6.00 Build 0)  -->
<!DOCTYPE svg PUBLIC "-//W3C//DTD SVG 1.1//EN" "http://www.w3.org/Graphics/SVG/1.1/DTD/svg11.dtd">
<svg version="1.1" id="图形" xmlns="http://www.w3.org/2000/svg" xmlns:xlink="http://www.w3.org/1999/xlink" x="0px" y="0px"
	 width="1000.637px" height="1000.678px" viewBox="0 0 1000.637 1000.678" enable-background="new 0 0 1000.637 1000.678"
	 xml:space="preserve">
<g>
	<g transform="scale(0.1953125, 0.1953125)">
		<path fill="#1AAD19" d="M1865.036,3160.602c-23.185,11.695-49.155,18.355-76.82,18.355c-63.98,0-119.625-35.165-148.88-87.365
			l-11.185-24.405l-466.144-1022.875c-5.075-11.207-8.12-23.672-8.12-35.96c0-47.127,38.215-85.34,85.34-85.34
			c19.13,0,36.8,6.33,51.095,16.965l550.009,391.616c40.155,26.275,88.23,41.7,139.835,41.7c30.775,0,60.12-5.715,87.52-15.775
			l2586.754-1151.262c-463.734-546.421-1227.352-903.595-2091.42-903.595c-1414.092,0-2560.409,955.243-2560.409,2133.667
			c0,642.903,344.929,1221.572,884.678,1612.706c43.33,30.885,71.705,81.805,71.705,138.995c0,19.02-4.085,36.45-9.025,54.495
			c-43.11,160.794-112.145,418.444-115.37,430.539c-5.315,19.985-13.745,41.165-13.745,62.17c0,47.35,38.215,85.56,85.385,85.56
			c18.535,0,33.58-6.925,49.225-15.84l560.429-323.794c42.185-24.36,86.84-39.45,135.975-39.45c26.125,0,51.41,4.015,75.235,11.295
			c261.514,75.28,543.634,117.069,835.788,117.069c1413.981,0,2560.344-955.327,2560.344-2133.744
			c0-356.867-105.79-693.038-291.625-988.723L1883.551,3149.752L1865.036,3160.602z"/>
	</g>
</g>
</svg>
