<?xml version="1.0" encoding="utf-8"?>
<!-- Generator: Adobe Illustrator 16.0.0, SVG Export Plug-In . SVG Version: 6.00 Build 0)  -->
<!DOCTYPE svg PUBLIC "-//W3C//DTD SVG 1.1//EN" "http://www.w3.org/Graphics/SVG/1.1/DTD/svg11.dtd">
<svg version="1.1" id="图形" xmlns="http://www.w3.org/2000/svg" xmlns:xlink="http://www.w3.org/1999/xlink" x="0px" y="0px"
	 width="3036.748px" height="1000.678px" viewBox="0 0 3036.748 1000.678" enable-background="new 0 0 3036.748 1000.678"
	 xml:space="preserve">
<path fill="#FFFFFF" d="M365.427,620.728c-4.548,2.289-9.663,3.607-15.073,3.607c-12.549,0-23.486-6.918-29.214-17.135l-2.183-4.811
	l-91.464-200.675c-0.988-2.188-1.602-4.649-1.602-7.054c0-9.249,7.491-16.745,16.745-16.745c3.762,0,7.218,1.239,10.025,3.318
	l107.901,76.84c7.89,5.154,17.313,8.184,27.441,8.184c6.047,0,11.822-1.12,17.188-3.074l507.527-225.89
	C821.742,130.07,671.919,60,502.372,60C224.924,60,0.017,247.417,0.017,478.632c0,126.146,67.671,239.695,173.571,316.432
	c8.503,6.078,14.062,16.031,14.062,27.27c0,3.725-0.784,7.135-1.762,10.676c-8.458,31.557-21.996,82.092-22.645,84.451
	c-1.045,3.961-2.693,8.092-2.693,12.248c0,9.24,7.491,16.736,16.743,16.736c3.65,0,6.605-1.35,9.685-3.119l109.97-63.488
	c8.275-4.783,17.028-7.729,26.668-7.729c5.138,0,10.106,0.785,14.779,2.211c51.313,14.76,106.65,22.957,163.976,22.957
	c277.436,0,502.342-187.436,502.342-418.645c0-70.029-20.733-135.984-57.223-193.986L369.088,618.608L365.427,620.728z"/>
<path fill="#FFFFFF" d="M1485.585,660.171h20.371l-0.955,3.1l-54.838,183.016h-17.551l-0.455-1.803l-27.077-103.938
	c-4.615-16.984-8.321-31.313-10.993-44.373c-2.979,12.361-7.082,26.508-12.549,44.516l-31.318,105.598h-17.255l-0.478-1.803
	l-48.676-184.313h20.28l0.479,1.779l29.054,112.879c3.229,12.789,6.32,24.971,8.867,35.9c3.365-13.818,8.116-29.619,13.482-47.113
	l29.942-103.445h17.575l0.478,1.779l26.758,101.006c4.046,15.006,8.537,32.012,11.788,47.211c2.546-10.313,5.49-20.752,8.832-32.57
	l4.002-14.174L1485.585,660.171z M1569.785,708.79c19.54,0,34.17,7.963,43.502,23.68c9.002,15.117,9.697,32.523,9.697,37.49
	c0,3.67,0,5.695-0.603,8.463l-0.614,2.75h-93.339c1.104,31.723,17.483,49.863,45.084,49.863c16.836,0,25.919-3.154,32.58-6.252
	l2.011-0.916l8.537,14.797l-2.888,1.592c-4.682,2.607-18.142,8.684-41.831,8.684c-37.708,0-63.023-27.145-63.023-67.547
	C1508.899,737.976,1533.361,708.79,1569.785,708.79 M1602.636,764.071c-0.341-7.508-2.263-20.104-10.822-28.771
	c-5.787-5.904-13.721-8.885-23.623-8.885c-15.584,0-33.772,9.93-38.717,37.656H1602.636z M1773.32,823.624h-0.012
	c-10.071,4.645-24.19,7.42-37.785,7.42c-45.231,0-72.229-28.592-72.229-76.482c0-49.727,27.792-79.418,74.365-79.418
	c12.882,0,25.122,2.422,34.479,6.82l2.021,0.955l9.094-15.785l-2.715-1.5c-3.604-1.967-17.313-8.406-43.141-8.406
	c-56.473,0-94.406,39.008-94.406,97.057c0,69.863,47.56,94.66,88.279,94.66c22.951,0,40.832-4.867,49.948-9.406l2.957-1.488
	l-8.868-15.346L1773.32,823.624z M1865.295,708.796c-9.971,0-19.508,2.746-27.531,7.908c-4.604,2.637-8.902,6.285-12.562,10.65
	v-70.127h-19.769v189.064h19.769v-81.369c0-4.875,0.216-8.018,1.396-11.588c5.524-15.533,20.019-26.367,35.239-26.367
	c27.476,0,31.58,25.271,31.58,40.344v78.98h19.746v-80.307C1913.164,711.554,1873.287,708.796,1865.295,708.796 M2089.531,683.06
	h-19.769v29.898h-21.52v16.129h21.52v77.027c0,15.352,2.865,26.07,8.707,32.721c5.309,6.787,13.799,10.369,24.565,10.369
	c7.469,0,13.925-1.16,19.212-3.48l3.171-1.387l-8.298-14.375l-1.716,0.387c-2.991,0.637-6.618,0.967-10.767,0.967
	c-10.594,0-15.106-6.832-15.106-22.816v-79.412h36.41v-16.129h-36.41V683.06z M2255.043,658.847
	c21.724,0,38.922,5.576,49.731,16.125c9.732,9.123,14.882,22.117,14.882,37.582c0,15.846-4.39,28.355-13.404,38.238
	c-11.891,13.586-31.51,21.072-55.199,21.072c-7.072,0-12.972-0.211-18.291-1.199v75.627h-19.757V662.854l2.888-0.518
	C2228.737,660.024,2241.935,658.847,2255.043,658.847 M2232.761,752.47c6.024,1.574,13.47,1.768,19.348,1.768
	c30.373,0,47.79-14.695,47.79-40.342c0-23.793-16.54-37.434-45.39-37.434c-10.618,0-17.882,0.891-21.748,1.535V752.47z
	 M2537.229,711.72l-31.942,84.891c-2.536,6.662-4.81,13.293-6.719,18.949c-2.023-6.189-4.238-12.52-6.411-18.205l-33.49-83.428
	l-0.873-2.207h-21.1l49.223,123.063c1.331,3.348,1.354,4.246,1.354,4.281c0,0.842-0.695,2.631-1.331,4.229
	c-6.355,15.072-14.642,25.178-20.472,30.986c-7.991,7.703-16.654,11.662-21.099,13.324l-3.595,1.318l9.345,16.154l1.911-0.719
	c3.354-1.283,12.255-5.148,22.156-13.492c16.993-14.818,27.725-37.342,44.014-79.191l38.867-96.646l1.361-3.307H2537.229z
	 M2032.727,812.491c0,9.641,0.229,19.906,1.818,29.754l0.648,4.035h-18.983l-1.353-13.516c-6.583,6.951-19.146,16.439-38.764,16.439
	c-28.169,0-40.981-19.998-40.981-38.578c0-12.328,4.16-22.695,12.368-30.834c12.948-12.828,34.989-19.371,65.501-19.461
	c-0.011-12.492-2.764-21.291-8.447-26.902c-4.682-4.654-11.515-7.006-20.29-7.006h-0.468c-10.934,0-21.357,3-29.35,8.439
	l-2.16,1.455l-8.561-14.84l2.035-1.24c10.867-7.156,25.613-11.441,39.365-11.441c31.158,0,47.62,18.582,47.62,53.734V812.491
	 M1962.554,790.468c-4.751,4.619-7.16,10.682-7.16,18.039c0,17.035,11.855,23.076,22.007,23.076
	c19.576,0,30.612-11.959,34.434-23.145c0.943-2.41,1.147-4.898,1.147-6.588l-0.034-23.934l-2.399-0.012
	C1987.302,777.905,1971.138,782.136,1962.554,790.468 M2421.997,812.485c0,9.623,0.228,19.871,1.831,29.736l0.646,4.064h-18.983
	l-1.342-13.525c-6.582,6.971-19.154,16.436-38.809,16.436c-28.125,0-40.956-19.984-40.956-38.563
	c0-12.34,4.171-22.715,12.379-30.836c12.96-12.818,34.99-19.371,65.488-19.479c-0.012-12.477-2.773-21.285-8.423-26.895
	c-4.695-4.65-11.54-7.01-20.303-7.01h-0.466c-10.207,0-20.108,2.668-27.896,7.51l-2.126,1.324l-8.482-14.676l1.991-1.244
	c10.731-6.605,24.871-10.539,37.854-10.539c31.136,0,47.596,18.592,47.596,53.748V812.485 M2402.227,777.921l-2.42-0.021
	c-23.234,0-39.377,4.225-47.971,12.572c-4.75,4.619-7.173,10.686-7.173,18.027c0,17.035,11.868,23.072,22.029,23.072
	c19.552,0,30.591-11.951,34.409-23.139c0.943-2.377,1.149-4.889,1.149-6.574L2402.227,777.921z M2131.124,280.559h-248.427v24.515
	h248.427V280.559z M1882.697,375.694h248.427v-26.237h-248.427V375.694z M2124.885,555.642h-235.959V420.067h235.959V555.642z
	 M2098.659,444.582h-183.485v86.544h183.485V444.582z M1817.652,569.487V262.25c13.926-30.055,26.146-62.066,36.331-95.157
	l0.286-0.932l-24.237-13.994l-0.431,1.512c-21.793,76.839-53.168,145.425-93.284,203.883l-0.441,0.643l14.503,24.917l1.093-1.626
	c13.289-19.648,27.042-42.271,39.956-65.642v253.633H1817.652z M2723.248,153.686c-21.791,76.827-53.177,145.408-93.293,203.871
	l-0.434,0.637l14.484,24.934l1.125-1.631c13.277-19.648,27.055-42.265,39.934-65.625v253.616h26.236V262.25
	c13.903-29.97,26.112-61.98,36.343-95.157l0.295-0.943l-24.258-13.995L2723.248,153.686z M2028.657,202.583l-0.67-1.602
	c-1.717-3.962-5.945-12.834-11.288-24.032c-4.331-9.087-9.151-19.239-11.437-24.337l-0.84-2.001l-24.167,13.955l0.874,1.641
	c7.774,14.642,14.518,28.158,20.61,41.333c0.441,0.91,0.783,1.705,1.044,2.387h-144.185v26.254h298.363v-26.254h-141.105
	L2028.657,202.583z M1522.28,191.875h-24.508v77.516h-39.219V159.152h-24.52V269.39h-40.934v-77.516h-24.509v102.041h153.69V191.875
	z M1511.946,334.828h-136.468v24.525h136.468V334.828z M1464.543,502.708l-0.694,1.018l14.664,25.383l1.751-1.416
	c11.912-9.547,32.18-26.927,60.259-51.635l1.16-1.051l-12.291-21.313l-32.93,28.241v-81.646h-115.825v34.796
	c3.183,45.384-8.071,77.786-33.489,96.333l-1.41,1.012l12.846,22.27l1.148,1.955l1.74-1.443
	c32.441-26.713,47.709-64.289,45.402-111.68v-18.729h65.067v47.925C1471.102,489.602,1470.273,494.752,1464.543,502.708
	 M1275.046,288.539c34.228-34.269,63.761-75.862,85.394-120.258l0.499-1.046l-22.734-13.128l-0.568,1.199
	c-21.11,43.094-47.949,80.584-77.618,108.395l-0.717,0.676l14.597,25.316L1275.046,288.539z M1267.396,427.331l1.728-2.063
	c12.277-14.329,24.28-29.369,35.739-44.743v188.958h24.531V340.728c9.936-17.746,19.553-37.508,28.556-58.799l0.693-1.568
	l-23.52-13.54l-0.841,2.058c-20.348,50.857-47.289,95.652-80.051,133.108l-0.909,1.052L1265.998,425L1267.396,427.331z
	 M1518.05,325.875c28.225-46.095,49.813-103.621,64.157-170.951l0.205-0.99l1.001,0.012l24.43,0.035l-0.161,1.398
	c-3.318,25.758-13.413,56.559-21.018,79.527h97.408v24.525h-24.222c-5.811,85.711-21.338,152.279-46.129,197.875
	c13.548,25.724,37.682,55.801,68.046,84.801l1.09,1.035l-14.642,25.35l-1.774-1.813c-27.93-28.359-52.199-59.111-66.921-84.729
	c-13.083,23.526-36.955,51.61-71.013,83.518l-1.773,1.643l-14.437-24.971l1.16-1.057c32.636-29.078,57.36-57.877,73.502-85.608
	c-16.401-34.245-28.225-80.698-35.159-138.132c-2.058,3.808-4.559,8.32-7.479,13.465l-11.208,22.434l-15.449-26.749L1518.05,325.875
	z M1570.443,278.371c6.583,61.23,16.973,111.004,30.887,148.079c18.051-41.252,29.488-97.408,33.989-167.017h-57.031
	C1575.171,265.764,1572.534,272.129,1570.443,278.371 M1584.936,236.14 M2416.142,210.103h187.95v25.98h-187.95v75.873h100.24
	l0.283,0.16l20.483,11.828l-0.397,1.001c-23.929,60.667-64.362,113.425-116.959,152.665c33.977,22.814,68.808,38.296,92.202,47.316
	c38.647,14.91,64.624,21.793,64.884,21.871l1.513,0.398l-10.912,20.719l-1.661-0.359c-89.324-21.291-140.945-57.109-160.373-70.585
	c-1.919-1.33-3.487-2.41-4.695-3.217c-85.665,55.268-172.717,74.281-173.592,74.451l-0.876,0.199l-0.453-0.789l-14.746-25.549
	l1.693-0.342c62.124-12.072,115.211-32.42,166.945-64.021c-19.521-16.153-36.888-33.677-54.541-55.024
	c-37.194-44.954-56.076-87.059-56.258-87.479l-0.104-0.5l-0.012-22.741h120.805v-75.873h-186.28v-25.98h186.28v-59.646h26.53
	V210.103z M2295.862,335.061c23.134,47.284,60.147,91.866,104.479,125.81c74.162-53.159,101.126-115.01,105.401-125.81H2295.862z
	 M2972.835,256.517V154.617h-26.329v101.899h-196.191v26.19h196.191v219.757c0,22.9-13.629,34.051-41.684,34.051
	c-4.867,0-9.39-0.037-13.778-0.084l-1.227-0.012v26.26h1.215c9.47,0,16.292-0.068,20.781-0.082c22.462,0,36.057-4.43,46.914-15.305
	c9.936-9.953,14.687-25.059,14.107-44.873V282.707h63.896v-26.19H2972.835z M2825.828,342.893l-0.602-1.188l-23.679,13.84
	l0.533,1.052c14.46,28.271,30.74,62.913,48.383,102.956l0.567,1.273l25.804-15.057l-0.499-1.023
	C2862.967,417.521,2845.495,382.298,2825.828,342.893"/>
</svg>
