<?xml version="1.0" encoding="utf-8"?>
<!-- Generator: Adobe Illustrator 16.0.0, SVG Export Plug-In . SVG Version: 6.00 Build 0)  -->
<!DOCTYPE svg PUBLIC "-//W3C//DTD SVG 1.1//EN" "http://www.w3.org/Graphics/SVG/1.1/DTD/svg11.dtd">
<svg version="1.1" id="图形" xmlns="http://www.w3.org/2000/svg" xmlns:xlink="http://www.w3.org/1999/xlink" x="0px" y="0px"
	 width="1478.383px" height="1413.066px" viewBox="-242.664 41.759 1478.383 1413.066"
	 enable-background="new -242.664 41.759 1478.383 1413.066" xml:space="preserve">
<path fill="#FFFFFF" d="M364.48,599.401c-4.515,2.273-9.597,3.587-14.999,3.587
	c-12.486,0-23.339-6.87-29.045-17.039l-2.183-4.793l-90.946-199.563c-0.992-2.183-1.603-4.621-1.603-7.017
	c0-9.201,7.454-16.666,16.65-16.666c3.749,0,7.19,1.245,9.971,3.309l107.318,76.411c7.852,5.135,17.211,8.154,27.286,8.154
	c6.009,0,11.741-1.125,17.089-3.075l504.728-224.646C818.28,111.444,669.282,41.759,500.674,41.759
	c-275.938,0-499.593,186.392-499.593,416.335c0,125.445,67.289,238.367,172.609,314.686c8.458,6.037,13.991,15.938,13.991,27.125
	c0,3.707-0.792,7.096-1.76,10.617c-8.405,31.372-21.883,81.622-22.504,83.979c-1.046,3.947-2.688,8.049-2.688,12.182
	c0,9.187,7.454,16.652,16.652,16.652c3.615,0,6.567-1.352,9.624-3.1l109.375-63.146c8.221-4.764,16.932-7.705,26.526-7.705
	c5.098,0,10.035,0.797,14.685,2.211c51.03,14.681,106.061,22.836,163.08,22.836c275.906,0,499.589-186.403,499.589-416.34
	c0-69.657-20.638-135.239-56.91-192.929L368.117,597.295L364.48,599.401z"/>
<g>
	<g transform="scale(0.1953125, 0.1953125)">
		<path fill="#FFFFFF" d="M-157.038,6571.318c-7.81,27.96-15.455,55.12-22.937,81.555c-29.217,103.175-54.757,193.535-74.56,284.264
			c-19.517-108.895-52.992-236.789-88.545-369.094l-170.272-642.184h-88.307l-187.277,646.988
			c-42.775,139.585-80.092,264.239-100.117,365.304c-19.005-87.885-46.037-194.555-74.562-306.759l-181.67-705.533h-97.152
			l304.382,1152.677h86.59l195.782-660.494c46.727-154.29,76.962-260.669,95.892-355.949
			c16.55,102.015,43.635,209.994,83.41,355.659l171.987,660.783h88.252L129.318,5925.86H32.004L-157.038,6571.318z
			 M736.004,6971.142c-47.185,21.845-107.017,41.21-213.639,41.21c-190.132,0-300.009-126.66-302.232-347.759h596.766l1.18-5.425
			c3.555-15.98,3.555-28.255,3.555-50.53c0-30.62-4.283-137.729-59.507-230.564c-56.417-94.885-145.065-143.004-263.442-143.004
			c-222.412,0-371.879,179.339-371.879,446.269c0,247.68,154.875,414.094,385.404,414.094c146.885,0,229.729-37.245,258.524-53.225
			l4.735-2.66L736.004,6971.142z M488.6,6316.469c67.08,0,121.27,20.535,161.102,60.945c64.802,65.755,73.397,163.54,73.632,209.125
			H224.416C242.216,6460.168,321.22,6316.469,488.6,6316.469z M1524.19,7012.352c-297.207,0-474.616-187.569-474.616-501.688
			c0-325.77,182.492-520.254,488.146-520.254c84.755,0,164.45,15.95,225.774,44.785l43.017-74.42l-3.552-1.97
			c-22.027-12.12-106.267-51.55-266.969-51.55c-349.727,0-584.749,241.814-584.749,601.739
			c0,432.874,294.057,586.438,545.919,586.438c143.225,0,254.359-30.07,310.604-58.175l4.282-2.115l-41.195-71.395
			C1704.842,6994.147,1613.52,7012.352,1524.19,7012.352z M2328.55,6235.069c-60.367,0-118.395,16.745-167.33,48.2
			c-40.34,23.08-77.035,59.67-102.887,102.155v-478.169h-94.945v1171.282h94.945v-501.974c0-32.875,1.57-54.105,9.76-78.785
			c37.28-104.78,135.327-177.884,238.464-177.884c188.005,0,216.112,170.31,216.112,271.849v486.794h94.95v-495.204
			C2617.62,6251.884,2376.75,6235.069,2328.55,6235.069z M3838.636,7007.542c-16.675,3.535-39.905,6.485-71.795,6.485
			c-75.945,0-111.335-50.97-111.335-160.375v-520.218h231.475v-79.805h-231.475V6071.49h-94.985v182.139h-136.855v79.805h136.855
			v505.039c0,93.709,17.14,158.734,52.165,198.56c30.81,39.32,80.61,60.11,144.065,60.11c45.255,0,84.245-7.025,115.955-20.86
			l4.445-1.965L3838.636,7007.542z M4525.7,5917.45c-81.915,0-164.694,7.355-246.25,22.065l-5.68,1.02v1138.002h94.939v-484.464
			c37.1,9.425,78.43,11.355,131.62,11.355c146.1,0,266.754-45.83,339.714-128.985c54.645-59.925,81.18-136.095,81.18-232.784
			c0-93.86-31.16-172.754-89.925-227.984C4765.184,5951.42,4659.54,5917.45,4525.7,5917.45z M4826.284,6252.174
			c0,172.714-116.29,271.819-319.149,271.819c-42.92,0-96.91-1.75-138.379-14.965V6011.05c19.695-3.93,71.1-12.19,153.524-12.19
			C4715.489,5998.86,4826.284,6091.189,4826.284,6252.174z M6233.235,6253.629l-199.31,529.939
			c-18.455,47.915-34.03,94.515-47.875,135.729c-3.275,9.865-6.48,19.44-9.565,28.54c-16.355-52.79-36.334-111.185-54.729-159.314
			l-212.899-530.519l-1.75-4.375h-101.07l304.584,761.418c7.94,19.875,9.61,28.87,9.61,32.91c0,7.39-3.35,17.26-9.57,32.805
			c-41.25,97.895-95.465,164.009-133.58,202.164c-52.715,50.825-110.095,76.965-139.584,88.03l-5.61,2.115l43.62,75.615
			c21.62-8.19,75.725-31.925,136.235-82.97c105.435-91.96,172.895-233.805,275.634-497.679l247.144-614.409H6233.235
			L6233.235,6253.629z M3356.095,7070.527c-10.337-63.635-11.795-129.674-11.795-191.534v-317.649
			c0-213.455-99.355-326.274-287.397-326.274c-84.61,0-175.155,26.32-242.032,70.405l-0.327,0.22l38.665,66.99
			c53.19-36.15,122.145-56.215,195.322-56.215c0.985,0,1.965,0,2.915,0c59.992,0,107.107,16.495,139.797,48.97
			c39.175,38.735,58.182,98.41,58.182,182.399v14.96c-198.854-1.6-339.969,39.065-421.011,119.305
			c-49.185,48.68-74.125,110.935-74.125,185.06c0,110.745,76.747,229.979,245.202,229.979c122.652,0,212.032-63.6,258.159-126.945
			l10.998,108.34h88.76L3356.095,7070.527z M3249.388,6811.417c0,12.055-1.345,29.97-8.12,46.75
			c-25.845,76.165-100.847,157.535-233.369,157.535c-71.647,0-155.237-42.45-155.237-162.05c0-51.04,16.858-93.305,50.17-125.709
			c57.593-55.925,163.685-84.21,315.722-84.21c10.08,0,20.313,0.145,30.835,0.365V6811.417L3249.388,6811.417z M5535.087,7070.527
			c-10.345-63.67-11.76-129.674-11.76-191.534v-317.649c0-213.455-99.395-326.274-287.399-326.274
			c-80.82,0-166.674,24.17-232.454,64.655l38.485,66.735c51.69-32.15,116.72-49.99,185.6-49.99c0.945,0,1.93,0,2.915,0
			c59.995,0,107.029,16.495,139.799,48.93c39.135,38.775,58.145,98.45,58.145,182.439v14.995
			c-198.095-1.635-339.934,39.07-421.014,119.27c-49.18,48.68-74.09,110.935-74.09,185.06c0,110.785,76.75,229.979,245.165,229.979
			c122.625,0,212.035-63.565,258.199-126.945l10.995,108.34h88.68L5535.087,7070.527z M5428.377,6811.417
			c0,12.055-1.35,29.97-8.085,46.75c-25.89,76.165-100.85,157.535-233.37,157.535c-71.645,0-155.27-42.45-155.27-162.05
			c0-51.04,16.885-93.305,50.205-125.709c57.52-55.925,163.649-84.21,315.719-84.21c10.045,0,20.345,0.145,30.84,0.365"/>
	</g>
</g>
</svg>
