<?xml version="1.0" encoding="utf-8"?>
<!-- Generator: Adobe Illustrator 16.0.0, SVG Export Plug-In . SVG Version: 6.00 Build 0)  -->
<!DOCTYPE svg PUBLIC "-//W3C//DTD SVG 1.1//EN" "http://www.w3.org/Graphics/SVG/1.1/DTD/svg11.dtd">
<svg version="1.1" id="图形" xmlns="http://www.w3.org/2000/svg" xmlns:xlink="http://www.w3.org/1999/xlink" x="0px" y="0px"
	 width="6927.221px" height="1000.678px" viewBox="0 0 6927.221 1000.678" enable-background="new 0 0 6927.221 1000.678"
	 xml:space="preserve">
<g>
	<g transform="scale(0.1953125, 0.1953125)">
		<path fill="#FFFFFF" d="M1863.729,3161.012c-23.2,11.705-49.19,18.375-76.875,18.375c-64.025,0-119.71-35.195-148.985-87.435
			l-11.19-24.415l-466.469-1023.59c-5.08-11.215-8.125-23.687-8.125-35.965c0-47.157,38.24-85.417,85.4-85.417
			c19.14,0,36.825,6.335,51.13,16.978l550.384,391.887c40.185,26.315,88.295,41.73,139.935,41.73c30.8,0,60.165-5.7,87.585-15.765
			l2588.553-1152.082c-464.054-546.789-1228.207-904.213-2092.875-904.213c-1415.081,0-2562.198,955.918-2562.198,2135.135
			c0,643.363,345.169,1222.422,885.293,1613.826c43.36,30.915,71.755,81.87,71.755,139.094c0,19.03-4.085,36.47-9.03,54.535
			c-43.14,160.899-112.225,418.734-115.45,430.833c-5.32,20-13.75,41.195-13.75,62.22c0,47.375,38.24,85.615,85.44,85.615
			c18.545,0,33.605-6.93,49.255-15.855l560.834-324.02c42.215-24.37,86.905-39.475,136.07-39.475c26.14,0,51.44,4.02,75.285,11.305
			c261.694,75.335,544.004,117.145,836.368,117.145c1414.966,0,2562.134-955.983,2562.134-2135.225
			c0-357.114-105.87-693.518-291.83-989.388L1882.259,3150.162L1863.729,3161.012z"/>
	</g>
</g>
<g>
	<g transform="scale(0.1953125, 0.1953125)">
		<path fill="#FFFFFF" d="M7159.354,2089.14h-956.048v-212.704h1086.525v-462.404H7516.8v462.404h1092.098v212.704h-967.35
			c275.182,527.679,609.916,958.838,1097.862,1296.392l-161.672,195.74c-453.926-371.589-799.953-816.943-1060.938-1347.419
			v1035.415h612.701v204.205H7516.8v499.274h-226.969v-499.274H6682.78v-204.219h607.051V2245.14
			c-229.79,479.459-538.969,885.093-1066.662,1358.776l-155.982-187.145C6594.842,2982.698,6915.321,2565.719,7159.354,2089.14z
			 M9400.045,2537.361v-834h1049.567c-36.854-90.815-85.109-201.4-110.579-260.979l258.119-39.732
			c25.55,56.777,90.8,198.609,130.449,300.712h933.283v201.419h-2045.25v612.726c0,712.011-68.085,1009.85-334.754,1441.024
			l-215.59-102.11C9334.755,3442.231,9400.045,3167.072,9400.045,2537.361z M10668.107,1975.653v297.907h941.768v198.529h-941.768
			v391.449h743.157V3958.53h-218.409v-167.4h-1112.024v167.4h-215.587V2863.548h584.368v-887.895H10668.107z M10080.831,3589.756
			h1112.024v-521.904h-1112.024V3589.756z M12457.803,2696.168v-589.986h-351.8v-207.084h351.8v-479.389h209.895v479.389h309.214
			v207.084h-309.214v524.806l269.504-85.13l28.325,204.209l-297.829,90.83v771.603c0,224.07-73.735,280.779-320.555,280.779
			h-218.414l-42.495-201.324h204.209c136.115,0,167.36-22.745,167.36-147.515v-638.263l-380.159,116.275l-45.4-207.104
			C12142.923,2786.988,12296.123,2744.448,12457.803,2696.168z M13881.864,1377.102c70.874,96.487,221.204,303.524,286.464,400.019
			l-113.484,73.767h567.373v190.025h-590.014v371.592h538.959v184.435h-538.959v368.784h538.959v187.17h-538.959v402.814h632.554
			v192.919H13283.33V3955.7h-204.314V2344.434c-42.51,65.275-87.939,127.655-133.34,190.042l-153.124-156.005
			c224.069-283.662,380.089-609.926,468.028-989.987l209.899,39.702c-39.715,147.532-85.039,286.457-138.954,422.701h641.063
			c-68.04-102.122-190.035-280.879-252.395-368.802L13881.864,1377.102z M13283.33,2412.504h544.659v-371.592h-544.659V2412.504z
			 M13283.33,2965.723h544.659v-368.784h-544.659V2965.723z M13283.33,3555.706h544.659v-402.814h-544.659V3555.706z
			 M15767.909,1632.416v-226.962h207.114v226.962h734.693v-226.962h204.279v226.962h675.133v187.24h-675.133v192.924h-204.279
			v-192.924h-734.693v139.02l22.665-56.772l212.77,48.277c-31.23,70.897-62.354,136.15-96.415,201.337h1492.121v187.237h-1594.296
			c-82.255,141.824-175.879,272.359-283.664,397.144V3955.7h-204.215V2945.868c-119.169,113.395-252.509,221.205-405.624,326.169
			l-93.629-204.184c311.994-207.115,558.813-451.034,743.173-729.098h-655.254v-187.237h765.943
			c25.475-48.212,51.015-93.545,73.775-144.63h-184.465v-187.232h-686.469v-187.24H15767.909z M16448.723,3742.946
			c175.949,0,221.273-42.525,221.273-175.854v-275.174h-780.093v-181.55h780.093v-113.48l419.885-243.939h-1046.793v-181.55
			h1409.871v167.38l-578.678,340.354v31.235h763.033v181.55h-763.033v320.569c0,249.624-62.455,317.714-354.609,317.714h-317.684
			l-39.721-187.254H16448.723z M18544.742,1419.709l204.309,53.9c-59.6,221.279-127.654,422.604-207.109,612.721v1883.58h-204.27
			V2500.441c-73.77,127.667-153.129,252.507-241.059,371.682l-124.859-181.55
			C18195.813,2381.357,18402.928,1907.573,18544.742,1419.709z M19554.59,2236.642v-283.649h-794.264v-192.925h794.264v-340.359
			h204.328v340.359h808.43v192.925h-808.43v283.649h686.465v729.096h-686.465c-5.693,218.384-39.715,385.759-124.854,521.899
			c255.283,116.3,578.674,190.059,1007.053,235.449l-59.611,209.895c-459.508-59.485-808.428-150.31-1086.416-289.329
			c-156.051,133.34-400,235.455-763.104,334.744l-102.1-198.52c317.699-82.32,527.594-158.895,666.623-255.329
			c-161.715-113.455-297.844-252.51-414.225-422.679l150.41-119.17c110.621,164.574,243.959,297.834,411.314,402.819
			c82.254-110.575,107.799-246.814,110.58-419.794h-692.154v-729.081H19554.59L19554.59,2236.642z M19061.061,2775.613h493.574
			v-354.524h-493.574V2775.613z M19758.918,2421.089v354.524h485.049v-354.524H19758.918z M21287.564,2707.548V1578.524h2079.301
			v2019.792c0,246.734-79.395,320.504-346.029,320.504h-320.605l-39.738-212.699h289.369c175.943,0,204.314-34.045,204.314-178.765
			v-380.064h-723.398v763.043h-209.895v-763.043h-731.918c-28.33,328.969-104.881,550.264-289.35,848.168l-201.379-104.965
			C21250.744,3504.711,21287.564,3334.447,21287.564,2707.548z M21500.344,2937.298h720.488v-456.719h-717.693v303.599
			C21503.139,2838.078,21503.139,2889.098,21500.344,2937.298z M21503.139,2270.682h717.693v-482.261h-717.693V2270.682z
			 M22430.742,1788.421v482.261h723.434v-482.261H22430.742z M22430.742,2937.298h723.434v-456.719h-723.434V2937.298z
			 M24620.496,2750.068v-289.342h913.428l-25.545-39.637l48.234-90.817h-904.857v-19.875
			c-45.424,90.837-99.314,187.254-158.92,286.542v1163.067c181.566-175.949,218.42-283.744,218.42-558.813v-323.474h782.959v382.959
			l136.129-124.765l56.775,289.339c-70.936,48.225-258.154,212.794-357.469,317.714l-170.195-173.075
			c45.4-56.68,48.195-70.87,48.195-124.77v-278.049h-204.186v96.51c0,272.269-48.225,425.479-266.668,680.788l-243.961-144.62
			v127.625h-286.523v-910.638c-45.33,59.585-93.635,116.295-136.174,167.385l-133.295-320.574
			c158.844-184.37,354.578-496.356,473.738-760.243l241.174,96.49v-513.484c-124.854,212.787-306.418,465.206-468.094,655.316
			l-224.1-215.587c170.186-195.732,368.705-465.286,468.025-669.491l263.773,155.997l-22.645,42.605h255.299v397.141h79.449
			v-609.911h269.52v609.931h82.201v-397.161h269.504v527.594c96.523-229.752,175.875-493.549,221.27-731.888l286.539,34.045
			c-22.75,130.532-53.916,258.192-90.805,380.156h521.963v306.319h-104.979c-39.721,442.542-110.596,768.796-241.115,1055.265
			c113.439,201.419,252.49,377.274,416.979,536.159l-229.754,221.279c-138.955-158.89-255.324-309.204-351.725-465.219
			c-110.68,167.38-249.635,329.094-425.514,507.754l-229.754-226.899c215.58-187.229,374.404-380.144,493.563-592.933
			c-73.719-175.86-130.43-365.904-170.145-581.484l-36.953,65.275l-90.691-139.032v198.527H24620.496z M25919.703,2211.095
			c19.85,238.329,62.359,448.224,127.635,638.263c68.09-201.399,110.68-425.486,136.145-677.976h-246.725L25919.703,2211.095z
			 M27726.395,1703.361h717.691l-107.789-198.604l337.6-102.107c34.016,68.075,102.09,195.724,158.785,300.712h686.572v317.694
			h-1807.029v-275.172c-42.615,124.857-85.102,241.149-130.535,354.619V3935.85h-329.055V2710.428
			c-42.535,62.4-87.93,124.77-136.164,187.169l-215.535-294.964c209.855-275.177,445.305-771.618,550.289-1171.634l329.084,93.622
			L27726.395,1703.361z M27805.844,2957.153h1554.525V3930.2h-337.604v-99.325h-879.393v99.325h-337.549v-973.047H27805.844z
			 M27865.408,2429.567v-289.344h1432.607v289.344H27865.408z M27865.408,2840.878v-292.137h1432.607v292.137H27865.408z
			 M28143.393,3530.156h879.418v-272.259h-879.418V3530.156z M31045.09,2318.889v-246.744h-1049.666v-334.739h1049.666v-303.522
			h365.93v303.522h1046.758v334.739H31411.02v246.744h723.389v329.054c-170.25,292.229-343.35,516.329-595.764,712.038
			c252.414,127.655,564.518,229.774,955.951,309.219l-102.113,365.959c-516.27-127.645-890.748-278.054-1182.943-459.589
			c-283.609,153.199-649.598,297.869-1151.656,451.004l-124.859-365.879c405.629-107.795,714.832-215.59,958.873-329.074
			c-195.715-178.76-348.961-385.754-496.465-624.094l93.631-59.585h-269.475v-329.069h825.502V2318.889z M31212.369,3158.577
			c238.359-156,385.859-323.379,502.16-510.619h-953.178C30880.521,2846.578,31025.205,3013.953,31212.369,3158.577z
			 M33254.605,2718.908c-56.715,79.44-116.301,158.81-178.648,238.244l-226.961-312.004
			c221.273-269.477,479.348-748.936,626.867-1205.582l351.734,93.545c-70.844,201.415-144.625,385.844-221.145,558.904V3918.82
			h-351.828V2718.908H33254.605z M35087.195,1947.3h380.082v340.454h-380.082v1285.017c0,292.129-116.406,388.659-442.543,388.659
			h-368.832l-68.055-351.824H34551c164.496,0,178.758-34.015,178.758-144.62V2287.754h-1026.945V1947.3h1026.945v-473.711h357.438
			V1947.3L35087.195,1947.3z M33804.934,2574.214l283.668-187.242c110.691,147.505,346.129,485.151,453.926,649.631
			l-292.238,198.604C34142.48,3064.952,33915.555,2733.098,33804.934,2574.214z"/>
	</g>
</g>
</svg>
