<?xml version="1.0" encoding="utf-8"?>
<!-- Generator: Adobe Illustrator 16.0.0, SVG Export Plug-In . SVG Version: 6.00 Build 0)  -->
<!DOCTYPE svg PUBLIC "-//W3C//DTD SVG 1.1//EN" "http://www.w3.org/Graphics/SVG/1.1/DTD/svg11.dtd">
<svg version="1.1" id="图形" xmlns="http://www.w3.org/2000/svg" xmlns:xlink="http://www.w3.org/1999/xlink" x="0px" y="0px"
	 width="1395.288px" height="1486.601px" viewBox="-197.885 41.759 1395.288 1486.601"
	 enable-background="new -197.885 41.759 1395.288 1486.601" xml:space="preserve">
<path fill="#FFFFFF" d="M364.48,599.401c-4.515,2.273-9.597,3.587-14.999,3.587
	c-12.486,0-23.339-6.87-29.045-17.039l-2.183-4.793l-90.946-199.563c-0.992-2.183-1.603-4.621-1.603-7.017
	c0-9.201,7.454-16.666,16.65-16.666c3.749,0,7.19,1.245,9.971,3.309l107.318,76.411c7.852,5.135,17.211,8.154,27.286,8.154
	c6.009,0,11.741-1.125,17.089-3.075l504.728-224.646C818.28,111.444,669.282,41.759,500.674,41.759
	c-275.938,0-499.593,186.392-499.593,416.335c0,125.445,67.289,238.367,172.609,314.686c8.458,6.037,13.991,15.938,13.991,27.125
	c0,3.707-0.792,7.096-1.76,10.617c-8.405,31.372-21.883,81.622-22.504,83.979c-1.046,3.947-2.688,8.049-2.688,12.182
	c0,9.187,7.454,16.652,16.652,16.652c3.615,0,6.567-1.352,9.624-3.1l109.375-63.146c8.221-4.764,16.932-7.705,26.526-7.705
	c5.098,0,10.035,0.797,14.685,2.211c51.03,14.681,106.061,22.836,163.08,22.836c275.906,0,499.589-186.403,499.589-416.34
	c0-69.657-20.638-135.239-56.91-192.929L368.117,597.295L364.48,599.401z"/>
<g>
	<g transform="scale(0.1953125, 0.1953125)">
		<path fill="#FFFFFF" d="M1510.722,6675.903h986.692v88.46h-986.692V6675.903L1510.722,6675.903z M1510.722,6952.282h986.692v95.36
			h-986.692V6952.282L1510.722,6952.282z M2472.49,7769.69v-534.099h-936.748v534.099H2472.49z M1631.172,7324.031h745.873v357.129
			h-745.873V7324.031z M1239.858,7825.18V6596.383c55.985-120.57,105.405-250.509,145.95-382.059l-88.245-50.98
			c-87.105,306.869-214.795,585.849-375.034,819.358l52.65,90.44c55.505-82.11,114.105-178.66,169.289-279.959V7825.13h95.39
			V7825.18L1239.858,7825.18z M4825.089,7825.18V6596.383c55.955-120.57,105.44-250.509,146-382.059l-88.305-50.98
			c-87.07,306.869-214.77,585.849-375.014,819.358l52.7,90.44c55.44-82.11,114.169-178.66,169.31-279.959V7825.13h95.3v0.05
			H4825.089L4825.089,7825.18z M2601.085,6392.534h-579.729l61.57-35.34l2.12-1.25l-1.01-2.29c-7.14-16.47-25.535-55.18-45.08-96.18
			c-18.21-38.21-37.03-77.68-46.085-97.9l-1.22-2.84l-87.9,50.75l1.33,2.37c31.43,59.22,58.48,113.48,82.705,165.95
			c3.445,7.12,5.61,12.76,6.295,16.68h-580.129v95.45h1187.132V6392.534L2601.085,6392.534z M54.821,6320.144h-88.475v310.979
			h-167.16v-442.269h-88.515v442.269h-174.065v-310.979h-88.495v399.449H54.851v-399.449H54.821z M-524.242,6893.612H13.381v88.52
			h-537.624V6893.612L-524.242,6893.612z M-408.083,7324.852v-80.09h270.824v197.449c-3.355,68.82-6.775,89.91-30.42,122.8
			l-1.055,1.51l54.315,94.14l2.53-1.97c47.605-38.27,128.915-107.91,241.554-207.069l1.675-1.52l-42.69-73.97l-1.725-2.88
			l-135.71,116.41v-333.349h-454.744v134.259c12.845,183.91-33.01,315.459-136.435,390.859l-2.005,1.46l49.245,85.37l1.675,2.84
			l2.515-2.02C-459.618,7662.911-398.903,7513.391-408.083,7324.852z M-989.011,6606.963l53.46,92.55
			c137.27-137.54,254.584-302.649,341.624-481.179l-82.595-47.68C-761.787,6344.724-868.827,6494.233-989.011,6606.963z
			 M-1013.171,7162.892l49.05,84.99l1.955,3.43l2.57-3c52.255-61.06,103.375-125.37,152.055-191.339v768.158h88.505v-914.167
			c39.98-71.16,78.685-150.729,115.02-236.5l0.905-2.3l-85.62-49.24l-1.175,3.02c-81.83,204.599-190.2,384.739-322.004,535.408
			L-1013.171,7162.892z M704.004,6581.263v-88.52H311.18l0.025-0.04c34.05-102.67,73.1-222.209,86.255-324.629l-92.39-0.15
			c-57.415,269.219-145.125,502.929-258.019,687.338l55.86,96.76l40.965-81.95c15.415-27.07,27.94-49.8,37.345-67.97
			c27.67,238.52,75.935,430.539,143.65,570.869c-64.935,112.33-164.925,229.024-297.179,346.854l-1.68,1.53l50.975,88.33l1.735,3.04
			l2.61-2.35c139.96-131.24,236.944-246.104,288.199-341.664c58.41,104.11,157.325,230.064,272.114,346.644l2.56,2.57l52.37-90.68
			l1.155-1.93l-1.635-1.43c-123.165-117.7-220.834-239.699-275.159-343.889C521.3,7196.712,583.88,6927.952,606.96,6581.163h96.915
			v0.09h0.13V6581.263L704.004,6581.263z M376.61,7269.262c-58.245-150.34-101.495-354.659-128.635-607.569
			c8.84-26.53,20.085-53.57,33.415-80.439h237.164C500.235,6869.752,452.55,7101.132,376.61,7269.262z M4395.01,6487.563v-94.31
			h-754.093v-239.31h-96.565v239.31h-747.298v94.31h747.298v314.339h-15.36h-469.244l0.12,86.229c0,0,74.36,167.92,224.834,349.849
			c60.435,73.04,132.07,149.47,223.665,224.43c-170.145,104.7-382.559,204-677.413,261.299l55.735,96.45
			c0,0,349.794-74.6,697.453-299.759c47,29.82,261.669,201.469,663.553,297.219c0.43,0.1,0.75,0.19,1.06,0.31l1.615,0.29
			l39.16-74.37c0,0-103.689-27.27-260.854-87.81c-109.19-42.13-246.024-105.71-376.774-194.339
			c194.835-143.87,368.614-349.359,473.209-614.499l-78.355-45.34h-404.919h-0.93v-314.299H4395.01L4395.01,6487.563z
			 M4012.606,6884.663c0,0-97.075,278.279-430.204,515.878c-158.6-120.76-322.224-298.129-427.019-515.878H4012.606
			L4012.606,6884.663z M5606.397,7702.74c-19.565,0-37.645-0.11-55.25-0.27v95.39c37.855,0,65.325-0.3,83.325-0.3
			c93.609,0,144.694-20.01,184.664-60.02c38.87-38.88,57.505-98.23,55.155-176.44v-886.438h256.394v-95.2h-256.394v-408.829h-95.655
			v408.829h-787.058v95.2h787.058v886.658C5778.637,7657.601,5718.917,7702.74,5606.397,7702.74z M5392.917,7387.121l94.745-55.24
			c-50.675-103.29-118.54-240.29-202.574-408.559l-86.39,50.42C5256.798,7087.382,5321.813,7225.771,5392.917,7387.121z"/>
	</g>
</g>
</svg>
