<?xml version="1.0" encoding="utf-8"?>
<!-- Generator: Adobe Illustrator 16.0.0, SVG Export Plug-In . SVG Version: 6.00 Build 0)  -->
<!DOCTYPE svg PUBLIC "-//W3C//DTD SVG 1.1//EN" "http://www.w3.org/Graphics/SVG/1.1/DTD/svg11.dtd">
<svg version="1.1" id="图形" xmlns="http://www.w3.org/2000/svg" xmlns:xlink="http://www.w3.org/1999/xlink" x="0px" y="0px"
	 width="3963.855px" height="1000.678px" viewBox="0 0 3963.855 1000.678" enable-background="new 0 0 3963.855 1000.678"
	 xml:space="preserve">
<g>
	<g transform="scale(0.1953125, 0.1953125)">
		<path fill="#FFFFFF" d="M1866.339,3161.012c-23.2,11.705-49.19,18.375-76.875,18.375c-64.025,0-119.71-35.195-148.985-87.435
			l-11.19-24.415l-466.469-1023.59c-5.08-11.215-8.125-23.687-8.125-35.965c0-47.157,38.24-85.417,85.4-85.417
			c19.14,0,36.825,6.335,51.13,16.978l550.384,391.887c40.185,26.315,88.295,41.73,139.935,41.73c30.8,0,60.165-5.7,87.585-15.765
			l2588.553-1152.082c-464.054-546.789-1228.207-904.213-2092.875-904.213c-1415.082,0-2562.199,955.918-2562.199,2135.135
			c0,643.363,345.169,1222.422,885.293,1613.826c43.36,30.915,71.755,81.87,71.755,139.094c0,19.03-4.085,36.47-9.03,54.535
			c-43.14,160.899-112.225,418.734-115.45,430.833c-5.32,20-13.75,41.195-13.75,62.22c0,47.375,38.24,85.615,85.44,85.615
			c18.545,0,33.605-6.93,49.255-15.855l560.834-324.02c42.215-24.37,86.905-39.475,136.07-39.475c26.14,0,51.44,4.02,75.285,11.305
			c261.694,75.335,544.004,117.145,836.368,117.145c1414.966,0,2562.134-955.983,2562.134-2135.225
			c0-357.114-105.87-693.518-291.829-989.388L1884.869,3150.162L1866.339,3161.012z"/>
	</g>
</g>
<g>
	<g transform="scale(0.1953125, 0.1953125)">
		<path fill="#FFFFFF" d="M11296.176,1819.326h1921.854v172.3h-1921.854V1819.326z M11296.176,2357.659h1921.854v185.765h-1921.854
			V2357.659z M13169.48,3949.78V2909.488h-1824.565V3949.78H13169.48z M11530.779,3081.757h1452.807v695.598h-1452.807V3081.757z
			 M10768.597,4057.88V1664.446c109.04-234.839,205.3-487.924,284.27-744.143l-171.875-99.307
			c-169.669,597.701-418.384,1141.09-730.498,1595.924l102.555,176.159c108.11-159.935,222.255-347.994,329.754-545.286V4057.79
			h185.795V4057.88L10768.597,4057.88z M17751.834,4057.88V1664.446c108.994-234.839,205.375-487.924,284.385-744.143
			l-172.006-99.307c-169.604,597.701-418.318,1141.09-730.457,1595.924l102.66,176.159
			c107.984-159.935,222.373-347.994,329.764-545.286V4057.79h185.629v0.09H17751.834z M13419.96,1267.397h-1129.188l119.93-68.842
			l4.13-2.427l-1.97-4.44c-13.91-32.095-49.739-107.495-87.81-187.355c-35.47-74.42-72.12-151.3-89.76-190.69l-2.37-5.52
			l-171.209,98.842l2.579,4.617c61.221,115.337,113.92,221.047,161.09,323.224c6.71,13.865,10.93,24.86,12.271,32.5H11107.69v185.9
			h2312.27V1267.397L13419.96,1267.397z M8460.393,1126.402h-172.33v605.719h-325.583V870.673h-172.405v861.448h-339.039v-605.719
			H7278.67v778.033h1181.782v-778.033H8460.393z M7332.521,2243.405h1047.162v172.41H7332.521V2243.405z M7558.76,3083.347v-156
			h527.514v384.594c-6.535,134.055-13.2,175.125-59.26,239.194l-2.05,2.92l105.799,183.375l4.92-3.84
			c92.729-74.54,251.1-210.179,470.488-403.319l3.261-2.96l-83.146-144.085l-3.354-5.61l-264.335,226.75v-649.318h-885.732v261.519
			c25.01,358.219-64.295,614.448-265.739,761.318l-3.91,2.845l95.91,166.28l3.265,5.535l4.905-3.95
			C7458.39,3741.806,7576.645,3450.592,7558.76,3083.347z M6427.238,1685.071l104.13,180.245
			c267.374-267.872,495.878-589.486,665.418-937.218l-160.884-92.857C6869.832,1174.27,6661.347,1465.482,6427.238,1685.071z
			 M6380.178,2767.893l95.54,165.544l3.81,6.67l5-5.85c101.78-118.935,201.35-244.169,296.169-372.684V4057.79h172.395V2277.179
			c77.865-138.602,153.26-293.592,224.024-460.634l1.765-4.48l-166.76-95.91l-2.295,5.853
			c-159.379,398.534-370.469,749.401-627.193,1042.885L6380.178,2767.893z M9724.869,1634.996v-172.407h-765.138l0.045-0.087
			c66.319-199.965,142.38-432.799,168.01-632.298l-179.955-0.29c-111.829,524.381-282.674,979.587-502.573,1338.779l108.8,188.482
			l79.8-159.625c30.024-52.725,54.42-97.012,72.739-132.405c53.896,464.594,147.905,838.598,279.8,1111.942
			c-126.485,218.794-321.239,446.094-578.844,675.593l-3.271,2.98l99.29,172.04l3.38,5.915l5.08-4.55
			c272.614-255.644,461.514-479.384,561.354-665.503c113.765,202.764,306.43,448.119,530.014,675.193l4.985,4.995l102.005-176.604
			l2.25-3.775l-3.186-2.765c-239.895-229.28-430.144-466.904-535.943-669.823c195.479-357.004,317.374-880.503,362.324-1555.964
			h188.77v0.177H9724.869L9724.869,1634.996z M9087.166,2975.078c-113.444-292.824-197.689-690.808-250.544-1183.412
			c17.215-51.665,39.119-104.342,65.079-156.67h461.949C9327.966,2196.932,9235.086,2647.589,9087.166,2975.078z
			 M16914.137,1452.499V1268.81h-1468.812V802.691h-188.085v466.119h-1455.566v183.687h1455.566v612.253h-29.915h-913.978
			l0.23,167.969c0,0,144.829,327.064,437.919,681.413c117.719,142.28,257.249,291.124,435.648,437.154
			c-331.399,203.94-745.144,397.339-1319.457,508.944l108.58,187.865c0,0,681.309-145.295,1358.467-583.854
			c91.539,58.085,509.698,392.414,1292.476,578.908c0.842,0.2,1.455,0.375,2.057,0.6l3.154,0.57l76.279-144.855
			c0,0-201.969-53.12-508.128-171.035c-212.655-82.045-479.179-205.884-733.858-378.514
			c379.509-280.239,717.979-680.493,921.697-1196.922l-152.6-88.312h-788.697h-1.811v-612.184H16914.137L16914.137,1452.499z
			 M16169.293,2225.962c0,0-189.079,542.021-837.938,1004.82c-308.935-235.219-627.619-580.698-831.729-1004.82H16169.293
			L16169.293,2225.962z M19273.635,3819.391c-38.084,0-73.32-0.22-107.59-0.535v185.815c73.721,0,127.221-0.58,162.279-0.58
			c182.346,0,281.83-38.985,359.68-116.92c75.721-75.73,112-191.33,107.43-343.669V1816.918h499.408v-185.41h-499.408V835.193
			h-186.299v796.318h-1533.018v185.41h1533.018v1727.021C19609.135,3731.471,19492.809,3819.391,19273.635,3819.391z
			 M18857.836,3204.642l184.549-107.61c-98.703-201.17-230.889-468.014-394.578-795.763l-168.26,98.205
			C18592.701,2620.809,18719.342,2890.363,18857.836,3204.642z"/>
	</g>
</g>
</svg>
